<svg xmlns="http://www.w3.org/2000/svg" width="180" height="260" viewBox="0 0 180 260"><defs><linearGradient id="c" x1="0" y1="0" x2="1" y2="1"><stop stop-color="#5f7448"/><stop offset="1" stop-color="#34472e"/></linearGradient><linearGradient id="p" x1="0" y1="0" x2="0" y2="1"><stop stop-color="#625b43"/><stop offset="1" stop-color="#38352c"/></linearGradient><filter id="s"><feDropShadow dx="0" dy="5" stdDeviation="4" flood-color="#0b100c" flood-opacity=".48"/></filter></defs><g filter="url(#s)" stroke="#20291f" stroke-width="3" stroke-linejoin="round"><ellipse cx="90" cy="244" rx="45" ry="9" fill="#11150f" opacity=".3" stroke="none"/><path d="M58 151h64l-6 46-10 42H85l-3-52-6 52H55l-7-43z" fill="url(#p)"/><path d="M49 232h30l4 13-8 8H48c-6-6-5-14 1-21zM91 232h29c7 7 8 14 1 21H95l-7-8z" fill="#302f26"/><path d="M48 91c8-23 24-35 43-35 22 0 39 13 44 36l10 72-27 9-9-46 2 55c-18 10-45 11-65 0l3-55-9 46-27-9z" fill="url(#c)"/><path d="M65 83h51" stroke="#a3b078" stroke-width="3" opacity=".5"/><path d="M78 37c0-16 8-29 23-30 17 0 25 13 24 31-1 19-11 31-25 31-14 0-22-13-22-32z" fill="#d1a47c"/><path d="M76 35c4-20 16-29 31-27 15 2 22 13 19 30-12-7-33-10-50-3z" fill="#4a4637"/><path d="M68 64h45" stroke="#5a4a32" stroke-width="7"/><path d="M49 96c-15 9-25 21-33 39l18 9 18-30zM133 96c15 10 24 22 31 39l-18 9-18-30z" fill="#465c38"/><path d="M15 134c-6 9-4 17 5 21 9 2 15-2 17-11zM146 144c2 10 8 14 17 11 9-5 10-13 4-21z" fill="#d1a47c"/><path d="M126 85l18 7-10 33-16-5z" fill="#b58b45"/><circle cx="139" cy="94" r="5" fill="#d9c06c" stroke="none"/></g></svg>