<svg xmlns="http://www.w3.org/2000/svg" width="180" height="260" viewBox="0 0 180 260">
<defs><linearGradient id="j" x1="0" y1="0" x2="1" y2="1"><stop stop-color="#c69a45"/><stop offset=".5" stop-color="#9b7132"/><stop offset="1" stop-color="#644725"/></linearGradient><linearGradient id="p" x1="0" y1="0" x2="0" y2="1"><stop stop-color="#55534a"/><stop offset="1" stop-color="#2b2d29"/></linearGradient><filter id="s"><feDropShadow dx="0" dy="5" stdDeviation="4" flood-color="#16120e" flood-opacity=".48"/></filter></defs>
<g filter="url(#s)" stroke="#29261f" stroke-width="3" stroke-linejoin="round">
<ellipse cx="90" cy="244" rx="45" ry="9" fill="#11110e" opacity=".32" stroke="none"/>
<path d="M59 151h63l-5 47-10 41H85l-3-51-6 51H55l-8-43z" fill="url(#p)"/>
<path d="M49 231h31l3 14-8 8H48c-7-6-6-14 1-22zM92 232h29c8 8 8 15 1 21H95l-7-8z" fill="#3d3b35"/>
<path d="M46 94c7-25 23-39 45-39 23 0 41 14 47 39l8 69-28 10-9-43 3 51c-19 11-47 11-68 0l4-52-10 44-27-10z" fill="url(#j)"/>
<path d="M53 101h74" stroke="#e9cf6b" stroke-width="5" opacity=".7"/>
<path d="M48 99c-16 10-27 22-35 40l19 9 19-30zM136 99c15 11 25 22 31 40l-19 9-18-30z" fill="#a87b34"/>
<path d="M12 138c-5 10-3 18 6 22 9 2 15-2 17-12zM148 148c2 10 8 14 17 11 9-5 10-14 4-22z" fill="#d1a37b"/>
<path d="M78 37c0-16 8-29 23-30 17 0 25 13 24 31-1 19-11 31-25 31-14 0-22-13-22-32z" fill="#d2a47c"/>
<path d="M78 37c1-19 12-29 27-29 15 0 23 10 23 27-14-7-34-8-50 2z" fill="#403b31"/>
<path d="M68 28c17-13 48-13 67 1l-7 15H77z" fill="#d5a53d"/>
<path d="M75 36h55" stroke="#f1cf5a" stroke-width="4"/>
<path d="M57 91c17 18 31 43 39 73" fill="none" stroke="#4f3925" stroke-width="6"/>
<path d="M99 143h32l7 31-27 13-20-15z" fill="#7a5734"/>
</g></svg>